# xmcd
# 
# Track frame offsets:
#     150
#     21853
#     37845
#     54878
#     74881
#     93218
#     115000
#     131705
#     147981
#     167875
#     192029
#     207479
#     222200
#     237060
#     256490
#     271463
#     298794
#     317770
# 
# Disc length: 4483
# 
# Revision: 1
# Processed by: cddbd v1.5.2PL0 Copyright (c) Steve Scherf et al.
# Submitted via: fre:ac v1.0.17
# 
DISCID=11118112
DTITLE=Alexandr Malinin - Zolotaja kollekcia
DYEAR=0
DGENRE=
TTITLE0=Берега
TTITLE1=Нет пути назад
TTITLE2=Черная гвоздика
TTITLE3=Ночь
TTITLE4=Толко ты
TTITLE5=Напрасные слова
TTITLE6=Венчание
TTITLE7=Я тебя не покину
TTITLE8=Когда ты сбрасываешь платье
TTITLE9=Летняя ночь
TTITLE10=Белый конь
TTITLE11=Ночи окаянные
TTITLE12=Помни и не забывай
TTITLE13=Гусарская баллада
TTITLE14=Леди Гамильтон
TTITLE15=Пилигримы
TTITLE16=Забава
TTITLE17=Гори, гори, моя звезда
EXTD=
EXTT0=
EXTT1=
EXTT2=
EXTT3=
EXTT4=
EXTT5=
EXTT6=
EXTT7=
EXTT8=
EXTT9=
EXTT10=
EXTT11=
EXTT12=
EXTT13=
EXTT14=
EXTT15=
EXTT16=
EXTT17=
PLAYORDER=
